<svg viewBox="1070 90 460 690" width="512" height="512" version="1.1" xmlns="http://www.w3.org/2000/svg">
<style>.vertex { font-family: Consolas } .edge { font-family: Consolas } .text { font-family: Consolas }</style>
    <path d="M 1300 120L 1131.304931640625 204.3475341796875" fill="none" stroke="#000000" stroke-width="2"></path>
    <path transform="translate(1131.304931640625 204.3475341796875) rotate(153.43494882292202)" d="M-1, -5 L 14 0 L -1, 5 z" fill="#000000"></path>
    <path d="M 1300 120L 1250.0698852539062 191.3287353515625" fill="none" stroke="#000000" stroke-width="2"></path>
    <path transform="translate(1250.0698852539062 191.3287353515625) rotate(124.99202019855869)" d="M-1, -5 L 14 0 L -1, 5 z" fill="#000000"></path>
    <path d="M 1300 120L 1349.9301147460938 191.3287353515625" fill="none" stroke="#000000" stroke-width="2"></path>
    <path transform="translate(1349.9301147460938 191.3287353515625) rotate(55.007979801441344)" d="M-1, -5 L 14 0 L -1, 5 z" fill="#000000"></path>
    <path d="M 1300 120L 1468.695068359375 204.3475341796875" fill="none" stroke="#000000" stroke-width="2"></path>
    <path transform="translate(1468.695068359375 204.3475341796875) rotate(26.565051177077986)" d="M-1, -5 L 14 0 L -1, 5 z" fill="#000000"></path>
    <path d="M 1100 220L 1100 384.996337890625" fill="none" stroke="#000000" stroke-width="2"></path>
    <path transform="translate(1100 384.996337890625) rotate(90)" d="M-1, -5 L 14 0 L -1, 5 z" fill="#000000"></path>
    <path d="M 1100 220L 1163.3200073242188 545.645751953125" fill="none" stroke="#000000" stroke-width="2"></path>
    <path transform="translate(1163.3200073242188 545.645751953125) rotate(78.99645914825051)" d="M-1, -5 L 14 0 L -1, 5 z" fill="#000000"></path>
    <path d="M 1230 220L 1119.0707397460938 390.660400390625" fill="none" stroke="#000000" stroke-width="2"></path>
    <path transform="translate(1119.0707397460938 390.660400390625) rotate(123.02386755579664)" d="M-1, -5 L 14 0 L -1, 5 z" fill="#000000"></path>
    <path d="M 1230 220L 1230 384.996337890625" fill="none" stroke="#000000" stroke-width="2"></path>
    <path transform="translate(1230 384.996337890625) rotate(90)" d="M-1, -5 L 14 0 L -1, 5 z" fill="#000000"></path>
    <path d="M 1230 220L 1293.3200073242188 545.645751953125" fill="none" stroke="#000000" stroke-width="2"></path>
    <path transform="translate(1293.3200073242188 545.645751953125) rotate(78.99645914825051)" d="M-1, -5 L 14 0 L -1, 5 z" fill="#000000"></path>
    <path d="M 1370 220L 1250.0677490234375 391.331787109375" fill="none" stroke="#000000" stroke-width="2"></path>
    <path transform="translate(1250.0677490234375 391.331787109375) rotate(124.99202019855869)" d="M-1, -5 L 14 0 L -1, 5 z" fill="#000000"></path>
    <path d="M 1370 220L 1370 384.996337890625" fill="none" stroke="#000000" stroke-width="2"></path>
    <path transform="translate(1370 384.996337890625) rotate(90)" d="M-1, -5 L 14 0 L -1, 5 z" fill="#000000"></path>
    <path d="M 1370 220L 1480.9292602539062 390.660400390625" fill="none" stroke="#000000" stroke-width="2"></path>
    <path transform="translate(1480.9292602539062 390.660400390625) rotate(56.97613244420335)" d="M-1, -5 L 14 0 L -1, 5 z" fill="#000000"></path>
    <path d="M 1370 220L 1306.6799926757812 545.645751953125" fill="none" stroke="#000000" stroke-width="2"></path>
    <path transform="translate(1306.6799926757812 545.645751953125) rotate(101.0035408517495)" d="M-1, -5 L 14 0 L -1, 5 z" fill="#000000"></path>
    <path d="M 1500 220L 1389.0707397460938 390.660400390625" fill="none" stroke="#000000" stroke-width="2"></path>
    <path transform="translate(1389.0707397460938 390.660400390625) rotate(123.02386755579664)" d="M-1, -5 L 14 0 L -1, 5 z" fill="#000000"></path>
    <path d="M 1500 220L 1500 384.996337890625" fill="none" stroke="#000000" stroke-width="2"></path>
    <path transform="translate(1500 384.996337890625) rotate(90)" d="M-1, -5 L 14 0 L -1, 5 z" fill="#000000"></path>
    <path d="M 1100 420L 1155.9713745117188 547.9345703125" fill="none" stroke="#000000" stroke-width="2"></path>
    <path transform="translate(1155.9713745117188 547.9345703125) rotate(66.37062226934319)" d="M-1, -5 L 14 0 L -1, 5 z" fill="#000000"></path>
    <path d="M 1230 420L 1182.2882080078125 547.2314453125" fill="none" stroke="#000000" stroke-width="2"></path>
    <path transform="translate(1182.2882080078125 547.2314453125) rotate(110.55604521958347)" d="M-1, -5 L 14 0 L -1, 5 z" fill="#000000"></path>
    <path d="M 1230 420L 1285.9713745117188 547.9345703125" fill="none" stroke="#000000" stroke-width="2"></path>
    <path transform="translate(1285.9713745117188 547.9345703125) rotate(66.37062226934319)" d="M-1, -5 L 14 0 L -1, 5 z" fill="#000000"></path>
    <path d="M 1370 420L 1314.0286254882812 547.9345703125" fill="none" stroke="#000000" stroke-width="2"></path>
    <path transform="translate(1314.0286254882812 547.9345703125) rotate(113.62937773065684)" d="M-1, -5 L 14 0 L -1, 5 z" fill="#000000"></path>
    <path d="M 1500 420L 1327.325439453125 558.1396484375" fill="none" stroke="#000000" stroke-width="2"></path>
    <path transform="translate(1327.325439453125 558.1396484375) rotate(141.34019174590992)" d="M-1, -5 L 14 0 L -1, 5 z" fill="#000000"></path>
    <path d="M 1500 420L 1444.0286254882812 547.9345703125" fill="none" stroke="#000000" stroke-width="2"></path>
    <path transform="translate(1444.0286254882812 547.9345703125) rotate(113.62937773065684)" d="M-1, -5 L 14 0 L -1, 5 z" fill="#000000"></path>
    <path d="M 1170 580L 1278.7393188476562 722.1975708007812" fill="none" stroke="#000000" stroke-width="2"></path>
    <path transform="translate(1278.7393188476562 722.1975708007812) rotate(52.59464336859145)" d="M-1, -5 L 14 0 L -1, 5 z" fill="#000000"></path>
    <path d="M 1300 580L 1300 714.9966430664062" fill="none" stroke="#000000" stroke-width="2"></path>
    <path transform="translate(1300 714.9966430664062) rotate(90)" d="M-1, -5 L 14 0 L -1, 5 z" fill="#000000"></path>
    <path d="M 1430 580L 1321.2606811523438 722.1975708007812" fill="none" stroke="#000000" stroke-width="2"></path>
    <path transform="translate(1321.2606811523438 722.1975708007812) rotate(127.40535663140857)" d="M-1, -5 L 14 0 L -1, 5 z" fill="#000000"></path>
    <circle cx="1300" cy="120" r="20" fill="#ffffff" stroke="#000000" stroke-width="1.5"/>
    <text class="vertex" x="1300" y="120" dominant-baseline="middle" text-anchor="middle" fill="#000000" font-size="18px">1</text>
    <circle cx="1100" cy="220" r="20" fill="#ffffff" stroke="#000000" stroke-width="1.5"/>
    <text class="vertex" x="1100" y="220" dominant-baseline="middle" text-anchor="middle" fill="#000000" font-size="18px">2</text>
    <circle cx="1230" cy="220" r="20" fill="#ffffff" stroke="#000000" stroke-width="1.5"/>
    <text class="vertex" x="1230" y="220" dominant-baseline="middle" text-anchor="middle" fill="#000000" font-size="18px">3</text>
    <circle cx="1370" cy="220" r="20" fill="#ffffff" stroke="#000000" stroke-width="1.5"/>
    <text class="vertex" x="1370" y="220" dominant-baseline="middle" text-anchor="middle" fill="#000000" font-size="18px">4</text>
    <circle cx="1500" cy="220" r="20" fill="#ffffff" stroke="#000000" stroke-width="1.5"/>
    <text class="vertex" x="1500" y="220" dominant-baseline="middle" text-anchor="middle" fill="#000000" font-size="18px">5</text>
    <circle cx="1100" cy="420" r="20" fill="#ffffff" stroke="#000000" stroke-width="1.5"/>
    <text class="vertex" x="1100" y="420" dominant-baseline="middle" text-anchor="middle" fill="#000000" font-size="18px">6</text>
    <circle cx="1230" cy="420" r="20" fill="#ffffff" stroke="#000000" stroke-width="1.5"/>
    <text class="vertex" x="1230" y="420" dominant-baseline="middle" text-anchor="middle" fill="#000000" font-size="18px">7</text>
    <circle cx="1370" cy="420" r="20" fill="#ffffff" stroke="#000000" stroke-width="1.5"/>
    <text class="vertex" x="1370" y="420" dominant-baseline="middle" text-anchor="middle" fill="#000000" font-size="18px">8</text>
    <circle cx="1500" cy="420" r="20" fill="#ffffff" stroke="#000000" stroke-width="1.5"/>
    <text class="vertex" x="1500" y="420" dominant-baseline="middle" text-anchor="middle" fill="#000000" font-size="18px">9</text>
    <circle cx="1170" cy="580" r="20" fill="#ffffff" stroke="#000000" stroke-width="1.5"/>
    <text class="vertex" x="1170" y="580" dominant-baseline="middle" text-anchor="middle" fill="#000000" font-size="18px">10</text>
    <circle cx="1300" cy="580" r="20" fill="#ffffff" stroke="#000000" stroke-width="1.5"/>
    <text class="vertex" x="1300" y="580" dominant-baseline="middle" text-anchor="middle" fill="#000000" font-size="18px">11</text>
    <circle cx="1430" cy="580" r="20" fill="#ffffff" stroke="#000000" stroke-width="1.5"/>
    <text class="vertex" x="1430" y="580" dominant-baseline="middle" text-anchor="middle" fill="#000000" font-size="18px">12</text>
    <circle cx="1300" cy="750" r="20" fill="#ffffff" stroke="#000000" stroke-width="1.5"/>
    <text class="vertex" x="1300" y="750" dominant-baseline="middle" text-anchor="middle" fill="#000000" font-size="18px">13</text>
</svg>